# Blender 3.4.1
# www.blender.org
mtllib ur mom.mtl
o Plane
v -1.159675 0.000000 1.000000
v -0.007303 0.000000 1.000000
v -1.687219 0.000000 0.000000
v -0.007303 0.000000 0.000000
v -1.675000 0.000000 0.166667
v -1.650000 0.000000 0.333333
v -1.600000 0.000000 0.500000
v -1.500000 0.000000 0.666667
v -1.353586 0.000000 0.833333
v -0.007303 0.000000 0.833333
v -0.007303 0.000000 0.666667
v -0.007303 0.000000 0.500000
v -0.007303 0.000000 0.333333
v -0.007303 0.000000 0.166667
v -1.159675 0.000000 -1.000000
v -0.007303 0.000000 -1.000000
v -1.675000 0.000000 -0.166667
v -1.650000 0.000000 -0.333333
v -1.600000 0.000000 -0.500000
v -1.500000 0.000000 -0.666667
v -1.353586 0.000000 -0.833333
v -0.007303 0.000000 -0.833333
v -0.007303 0.000000 -0.666667
v -0.007303 0.000000 -0.500000
v -0.007303 0.000000 -0.333333
v -0.007303 0.000000 -0.166667
vn -0.0000 1.0000 -0.0000
vt 0.000000 0.000000
vt 1.000000 0.000000
vt 0.000000 0.500000
vt 1.000000 0.500000
vt 0.000000 0.416667
vt 0.000000 0.333333
vt 0.000000 0.250000
vt 0.000000 0.166667
vt 0.000000 0.083333
vt 1.000000 0.083333
vt 1.000000 0.166667
vt 1.000000 0.250000
vt 1.000000 0.333333
vt 1.000000 0.416667
vt 0.000000 0.000000
vt 1.000000 0.000000
vt 0.000000 0.416667
vt 0.000000 0.333333
vt 0.000000 0.250000
vt 0.000000 0.166667
vt 0.000000 0.083333
vt 1.000000 0.083333
vt 1.000000 0.166667
vt 1.000000 0.250000
vt 1.000000 0.333333
vt 1.000000 0.416667
s 0
f 5/5/1 14/14/1 4/4/1 3/3/1
f 1/1/1 2/2/1 10/10/1 9/9/1
f 9/9/1 10/10/1 11/11/1 8/8/1
f 8/8/1 11/11/1 12/12/1 7/7/1
f 7/7/1 12/12/1 13/13/1 6/6/1
f 6/6/1 13/13/1 14/14/1 5/5/1
f 17/17/1 3/3/1 4/4/1 26/26/1
f 15/15/1 21/21/1 22/22/1 16/16/1
f 21/21/1 20/20/1 23/23/1 22/22/1
f 20/20/1 19/19/1 24/24/1 23/23/1
f 19/19/1 18/18/1 25/25/1 24/24/1
f 18/18/1 17/17/1 26/26/1 25/25/1
